<?xml version="1.0"?>
<svg xmlns="http://www.w3.org/2000/svg"  width="23" height="35">
  <path style="fill:#000000;fill-opacity:1"
       d="M 4.5,32 C 0,28 0,16.5 4.5,12 10,6.5 20,10 20,17 l 0,2.5 -15,0 0,3.5 c 0,3 0.5,6 5.5,7 2.8,0.6 6.5,0 9,-3 0.4,-0.5 1.5,-2.5 1.5,-1 0,1 -0.5,3.5 -3,5.5 C 13.5,35 8.5,35.5 4.5,32 z M 16,16 c 0,-4 -5.6,-5.6 -9,-3 -2,1.5 -2,3 -2,4.5 l 5.5,0 c 6,0 5.5,0 5.5,-1.5 z M 7.8,4.8 C 6,4.6 4.5,4 4.5,3.5 4.5,2.6 6.8,2.1 14.6,1.6 16.7,1.4 18,1.5 18.7,2.4 20.5,4.7 17.6,6 7.8,4.8 z" />
</svg>
