<svg id="SvgjsSvg1001" width="288" height="288" xmlns="http://www.w3.org/2000/svg" version="1.1" xmlns:xlink="http://www.w3.org/1999/xlink" xmlns:svgjs="http://svgjs.com/svgjs"><defs id="SvgjsDefs1002"></defs><g id="SvgjsG1008" transform="matrix(1,0,0,1,0,0)"><svg xmlns="http://www.w3.org/2000/svg" viewBox="0 0 40 40" width="288" height="288"><path d="M12,28a4,4,0,0,1,4-4h4v4a4,4,0,0,1-8,0Zm4-4h4V16H16a4,4,0,0,0,0,8Zm0-8h4V8H16a4,4,0,0,0,0,8Zm4,0h4a4,4,0,0,0,0-8H20Zm4,0a4,4,0,1,0,4,4A4,4,0,0,0,24,16Z" fill="#022a55" class="color000 svgShape"></path></svg></g></svg>